<svg width="135" height="70" viewBox="0 0 135 70" fill="none" xmlns="http://www.w3.org/2000/svg">
<path id="Exclude" fill-rule="evenodd" clip-rule="evenodd" d="M35 0C15.67 0 0 15.67 0 35C0 54.33 15.67 70 35 70C46.013 70 55.8379 64.9135 62.2538 56.9617C62.7593 57.1312 63.3183 57.216 63.9306 57.216C65.3226 57.216 66.4387 56.778 67.2786 55.902C68.1187 55.014 68.5387 53.928 68.5387 52.644C68.5387 51.36 68.1187 50.28 67.2786 49.404C67.195 49.3167 67.1086 49.2338 67.0194 49.1553C68.9356 44.8272 70 40.0379 70 35C70 15.67 54.33 0 35 0ZM65.9132 51.4274C66.3083 50.6855 66.6774 49.9277 67.0194 49.1553C66.2136 48.4451 65.184 48.09 63.9306 48.09C62.5386 48.09 61.4226 48.528 60.5826 49.404C59.7547 50.28 59.3406 51.36 59.3406 52.644C59.3406 53.928 59.7547 55.014 60.5826 55.902C61.0531 56.3926 61.6102 56.7459 62.2538 56.9617C62.7252 56.3774 63.1782 55.7777 63.6119 55.1634C63.7144 55.1758 63.8207 55.182 63.9306 55.182C64.6146 55.182 65.1546 54.942 65.5507 54.462C65.9586 53.97 66.1627 53.364 66.1627 52.644C66.1627 52.192 66.0795 51.7865 65.9132 51.4274ZM65.9132 51.4274C65.2231 52.7234 64.4538 53.9709 63.6119 55.1634C63.0767 55.0986 62.643 54.8648 62.3106 54.462C61.9146 53.97 61.7166 53.364 61.7166 52.644C61.7166 51.936 61.9146 51.342 62.3106 50.862C62.7066 50.37 63.2466 50.124 63.9306 50.124C64.6146 50.124 65.1546 50.37 65.5507 50.862C65.6982 51.0356 65.819 51.224 65.9132 51.4274ZM45.8887 57H48.4627V44.994H44.8627L41.9467 52.248L39.0307 44.994H35.4487V57H38.0047V48.594L41.3887 57H42.5047L45.8887 48.594V57ZM50.9552 46.974C51.2312 47.238 51.5552 47.37 51.9272 47.37C52.3112 47.37 52.6352 47.238 52.8992 46.974C53.1632 46.698 53.2952 46.374 53.2952 46.002C53.2952 45.63 53.1632 45.312 52.8992 45.048C52.6352 44.784 52.3112 44.652 51.9272 44.652C51.5552 44.652 51.2312 44.784 50.9552 45.048C50.6912 45.312 50.5592 45.63 50.5592 46.002C50.5592 46.374 50.6912 46.698 50.9552 46.974ZM50.7932 57H53.0792V48.306H50.7932V57ZM55.5079 46.974C55.7839 47.238 56.1079 47.37 56.4799 47.37C56.8639 47.37 57.1879 47.238 57.4519 46.974C57.7159 46.698 57.8479 46.374 57.8479 46.002C57.8479 45.63 57.7159 45.312 57.4519 45.048C57.1879 44.784 56.8639 44.652 56.4799 44.652C56.1079 44.652 55.7839 44.784 55.5079 45.048C55.2439 45.312 55.1119 45.63 55.1119 46.002C55.1119 46.374 55.2439 46.698 55.5079 46.974ZM53.3119 60.384C53.5999 60.48 54.0079 60.528 54.5359 60.528C55.5559 60.528 56.3239 60.234 56.8399 59.646C57.3679 59.058 57.6319 58.254 57.6319 57.234V48.306H55.3459V57.234C55.3459 57.702 55.2379 58.056 55.0219 58.296C54.8059 58.536 54.5179 58.656 54.1579 58.656C53.7379 58.656 53.3479 58.506 52.9879 58.206L52.3579 59.916C52.6939 60.144 53.0119 60.3 53.3119 60.384ZM69.8566 57H76.9486V55.002H72.8986L76.8766 49.962V48.306H69.8566V50.304H73.7806L69.8566 55.29V57ZM86.5853 54.912C86.2133 54.72 85.9313 54.486 85.7393 54.21V51.132C85.9313 50.844 86.2133 50.604 86.5853 50.412C86.9573 50.22 87.3293 50.124 87.7013 50.124C88.3613 50.124 88.8953 50.358 89.3033 50.826C89.7113 51.294 89.9153 51.906 89.9153 52.662C89.9153 53.418 89.7113 54.03 89.3033 54.498C88.8953 54.954 88.3613 55.182 87.7013 55.182C87.3293 55.182 86.9573 55.092 86.5853 54.912ZM83.4533 57H85.7393V55.884C86.4473 56.772 87.3413 57.216 88.4213 57.216C89.5493 57.216 90.4733 56.814 91.1933 56.01C91.9133 55.194 92.2733 54.078 92.2733 52.662C92.2733 51.27 91.9133 50.16 91.1933 49.332C90.4733 48.504 89.5493 48.09 88.4213 48.09C87.3173 48.09 86.4233 48.534 85.7393 49.422V44.994H83.4533V57ZM98.0322 57.216C99.4242 57.216 100.54 56.778 101.38 55.902C102.22 55.014 102.64 53.928 102.64 52.644C102.64 51.36 102.22 50.28 101.38 49.404C100.54 48.528 99.4242 48.09 98.0322 48.09C96.6402 48.09 95.5242 48.528 94.6842 49.404C93.8562 50.28 93.4422 51.36 93.4422 52.644C93.4422 53.928 93.8562 55.014 94.6842 55.902C95.5242 56.778 96.6402 57.216 98.0322 57.216ZM98.0322 55.182C97.3482 55.182 96.8082 54.942 96.4122 54.462C96.0162 53.97 95.8182 53.364 95.8182 52.644C95.8182 51.936 96.0162 51.342 96.4122 50.862C96.8082 50.37 97.3482 50.124 98.0322 50.124C98.7162 50.124 99.2562 50.37 99.6522 50.862C100.06 51.342 100.264 51.936 100.264 52.644C100.264 53.364 100.06 53.97 99.6522 54.462C99.2562 54.942 98.7162 55.182 98.0322 55.182ZM106.392 48.522C106.728 47.934 106.896 47.31 106.896 46.65C106.896 46.086 106.734 45.642 106.41 45.318C106.098 44.982 105.72 44.814 105.276 44.814C104.892 44.814 104.562 44.958 104.286 45.246C104.01 45.522 103.872 45.858 103.872 46.254C103.872 46.626 103.986 46.938 104.214 47.19C104.454 47.43 104.748 47.55 105.096 47.55C105.252 47.55 105.366 47.526 105.438 47.478C105.366 47.79 105.192 48.114 104.916 48.45C104.64 48.786 104.352 49.032 104.052 49.188L105.042 49.998C105.606 49.59 106.056 49.098 106.392 48.522ZM108.748 57H111.034V44.994H108.748V57ZM113.463 46.974C113.739 47.238 114.063 47.37 114.435 47.37C114.819 47.37 115.143 47.238 115.407 46.974C115.671 46.698 115.803 46.374 115.803 46.002C115.803 45.63 115.671 45.312 115.407 45.048C115.143 44.784 114.819 44.652 114.435 44.652C114.063 44.652 113.739 44.784 113.463 45.048C113.199 45.312 113.067 45.63 113.067 46.002C113.067 46.374 113.199 46.698 113.463 46.974ZM113.301 57H115.587V48.306H113.301V57ZM118.808 56.856C119.504 57.096 120.23 57.216 120.986 57.216C122.162 57.216 123.08 56.958 123.74 56.442C124.412 55.914 124.748 55.242 124.748 54.426C124.748 53.874 124.622 53.406 124.37 53.022C124.118 52.638 123.8 52.362 123.416 52.194C123.032 52.014 122.618 51.864 122.174 51.744C121.73 51.612 121.316 51.516 120.932 51.456C120.548 51.396 120.23 51.306 119.978 51.186C119.726 51.054 119.6 50.892 119.6 50.7C119.6 50.448 119.726 50.244 119.978 50.088C120.23 49.92 120.56 49.836 120.968 49.836C121.484 49.836 121.97 49.932 122.426 50.124C122.894 50.316 123.266 50.556 123.542 50.844L124.46 49.278C123.464 48.486 122.294 48.09 120.95 48.09C119.846 48.09 118.976 48.354 118.34 48.882C117.704 49.41 117.386 50.058 117.386 50.826C117.386 51.366 117.512 51.822 117.764 52.194C118.028 52.554 118.346 52.818 118.718 52.986C119.102 53.154 119.516 53.298 119.96 53.418C120.416 53.538 120.83 53.628 121.202 53.688C121.586 53.748 121.904 53.85 122.156 53.994C122.42 54.126 122.552 54.3 122.552 54.516C122.552 54.804 122.426 55.032 122.174 55.2C121.934 55.368 121.574 55.452 121.094 55.452C120.578 55.452 120.032 55.332 119.456 55.092C118.88 54.852 118.424 54.576 118.088 54.264L117.098 55.866C117.554 56.286 118.124 56.616 118.808 56.856ZM132.318 57H134.604V50.826C134.604 49.962 134.364 49.29 133.884 48.81C133.416 48.33 132.714 48.09 131.778 48.09C131.118 48.09 130.518 48.222 129.978 48.486C129.45 48.75 129.03 49.068 128.718 49.44V44.994H126.432V57H128.718V51.15C129.234 50.466 129.894 50.124 130.698 50.124C131.226 50.124 131.628 50.244 131.904 50.484C132.18 50.724 132.318 51.132 132.318 51.708V57Z" fill="#6911AD"/>
</svg>
