<svg width="173" height="70" viewBox="0 0 173 70" fill="none" xmlns="http://www.w3.org/2000/svg">
<path id="Exclude" fill-rule="evenodd" clip-rule="evenodd" d="M35 0C15.67 0 0 15.67 0 35C0 54.33 15.67 70 35 70C45.9085 70 55.6514 65.0096 62.0703 57.1872C62.2613 57.2064 62.4577 57.216 62.6596 57.216C64.1956 57.216 65.3416 56.688 66.0976 55.632L64.6036 54.246C64.364 54.5828 64.0754 54.8286 63.7379 54.9837C65.2883 52.7584 66.5867 50.3446 67.592 47.7835V57H69.878V51.15C70.394 50.466 71.054 50.124 71.858 50.124C72.386 50.124 72.788 50.244 73.064 50.484C73.34 50.724 73.478 51.132 73.478 51.708V57H75.764V50.826C75.764 49.962 75.524 49.29 75.044 48.81C74.576 48.33 73.874 48.09 72.938 48.09C72.278 48.09 71.678 48.222 71.138 48.486C70.61 48.75 70.19 49.068 69.878 49.44V44.994H68.5524C69.4942 41.8272 70 38.4727 70 35C70 15.67 54.33 0 35 0ZM68.5524 44.994H67.592V47.7835C67.9499 46.8717 68.2707 45.9412 68.5524 44.994ZM63.7379 54.9837C63.4501 55.1159 63.1266 55.182 62.7676 55.182C62.0716 55.182 61.5016 54.948 61.0576 54.48C60.6256 54.012 60.4096 53.4 60.4096 52.644C60.4096 51.888 60.6256 51.282 61.0576 50.826C61.5016 50.358 62.0716 50.124 62.7676 50.124C63.5716 50.124 64.1836 50.436 64.6036 51.06L66.0976 49.656C65.3416 48.612 64.1956 48.09 62.6596 48.09C61.3156 48.09 60.2116 48.516 59.3476 49.368C58.4836 50.22 58.0516 51.312 58.0516 52.644C58.0516 53.988 58.4836 55.086 59.3476 55.938C60.0818 56.662 60.9894 57.0784 62.0703 57.1872C62.6542 56.4756 63.2107 55.7405 63.7379 54.9837ZM30.4683 57H36.9843C38.0883 57 38.9463 56.694 39.5583 56.082C40.1703 55.47 40.4763 54.696 40.4763 53.76C40.4763 53.016 40.2543 52.362 39.8103 51.798C39.3663 51.234 38.8203 50.904 38.1723 50.808C38.7603 50.688 39.2523 50.382 39.6483 49.89C40.0443 49.398 40.2423 48.786 40.2423 48.054C40.2423 47.202 39.9363 46.482 39.3243 45.894C38.7243 45.294 37.8783 44.994 36.7863 44.994H30.4683V57ZM37.2543 49.44C37.0023 49.68 36.6603 49.8 36.2283 49.8H33.0243V47.19H36.2283C36.6483 47.19 36.9843 47.316 37.2363 47.568C37.5003 47.808 37.6323 48.12 37.6323 48.504C37.6323 48.888 37.5063 49.2 37.2543 49.44ZM37.4523 54.426C37.1763 54.666 36.7983 54.786 36.3183 54.786H33.0243V51.996H36.3183C36.7983 51.996 37.1763 52.134 37.4523 52.41C37.7283 52.674 37.8663 53.004 37.8663 53.4C37.8663 53.832 37.7283 54.174 37.4523 54.426ZM47.5698 57H49.8558V51.384C49.8558 50.22 49.5018 49.38 48.7938 48.864C48.0858 48.348 47.1738 48.09 46.0578 48.09C44.5578 48.09 43.2918 48.546 42.2598 49.458L43.1238 50.988C43.8678 50.304 44.7138 49.962 45.6618 49.962C46.2378 49.962 46.6998 50.094 47.0478 50.358C47.3958 50.622 47.5698 50.976 47.5698 51.42V52.59C46.9698 51.882 46.0518 51.528 44.8158 51.528C44.0118 51.528 43.3038 51.762 42.6918 52.23C42.0918 52.698 41.7918 53.4 41.7918 54.336C41.7918 55.236 42.0978 55.944 42.7098 56.46C43.3338 56.964 44.0358 57.216 44.8158 57.216C46.0278 57.216 46.9458 56.844 47.5698 56.1V57ZM47.5698 54.912C47.1978 55.416 46.5858 55.668 45.7338 55.668C45.2658 55.668 44.8758 55.554 44.5638 55.326C44.2518 55.098 44.0958 54.786 44.0958 54.39C44.0958 53.982 44.2518 53.664 44.5638 53.436C44.8758 53.196 45.2658 53.076 45.7338 53.076C46.5858 53.076 47.1978 53.328 47.5698 53.832V54.912ZM52.1233 57H54.4093V51.258C54.5893 50.982 54.8953 50.748 55.3273 50.556C55.7593 50.364 56.1673 50.268 56.5513 50.268C56.8153 50.268 57.0253 50.286 57.1813 50.322V48.09C56.6653 48.09 56.1553 48.222 55.6513 48.486C55.1473 48.75 54.7333 49.086 54.4093 49.494V48.306H52.1233V57ZM83.2534 57H85.5394V51.384C85.5394 50.22 85.1854 49.38 84.4774 48.864C83.7694 48.348 82.8574 48.09 81.7414 48.09C80.2414 48.09 78.9754 48.546 77.9434 49.458L78.8074 50.988C79.5514 50.304 80.3974 49.962 81.3454 49.962C81.9214 49.962 82.3834 50.094 82.7314 50.358C83.0794 50.622 83.2534 50.976 83.2534 51.42V52.59C82.6534 51.882 81.7354 51.528 80.4994 51.528C79.6954 51.528 78.9874 51.762 78.3754 52.23C77.7754 52.698 77.4754 53.4 77.4754 54.336C77.4754 55.236 77.7814 55.944 78.3934 56.46C79.0174 56.964 79.7194 57.216 80.4994 57.216C81.7114 57.216 82.6294 56.844 83.2534 56.1V57ZM83.2534 54.912C82.8814 55.416 82.2694 55.668 81.4174 55.668C80.9494 55.668 80.5594 55.554 80.2474 55.326C79.9354 55.098 79.7794 54.786 79.7794 54.39C79.7794 53.982 79.9354 53.664 80.2474 53.436C80.5594 53.196 80.9494 53.076 81.4174 53.076C82.2694 53.076 82.8814 53.328 83.2534 53.832V54.912ZM88.7608 56.856C89.4568 57.096 90.1829 57.216 90.9389 57.216C92.1149 57.216 93.0329 56.958 93.6928 56.442C94.3649 55.914 94.7009 55.242 94.7009 54.426C94.7009 53.874 94.5749 53.406 94.3229 53.022C94.0709 52.638 93.7529 52.362 93.3689 52.194C92.9848 52.014 92.5709 51.864 92.1269 51.744C91.6829 51.612 91.2689 51.516 90.8848 51.456C90.5009 51.396 90.1829 51.306 89.9309 51.186C89.6788 51.054 89.5528 50.892 89.5528 50.7C89.5528 50.448 89.6788 50.244 89.9309 50.088C90.1829 49.92 90.5129 49.836 90.9209 49.836C91.4369 49.836 91.9229 49.932 92.3789 50.124C92.8469 50.316 93.2188 50.556 93.4949 50.844L94.4128 49.278C93.4169 48.486 92.2468 48.09 90.9029 48.09C89.7989 48.09 88.9288 48.354 88.2929 48.882C87.6569 49.41 87.3389 50.058 87.3389 50.826C87.3389 51.366 87.4649 51.822 87.7169 52.194C87.9809 52.554 88.2989 52.818 88.6709 52.986C89.0549 53.154 89.4688 53.298 89.9128 53.418C90.3689 53.538 90.7829 53.628 91.1549 53.688C91.5388 53.748 91.8568 53.85 92.1088 53.994C92.3728 54.126 92.5049 54.3 92.5049 54.516C92.5049 54.804 92.3789 55.032 92.1269 55.2C91.8868 55.368 91.5269 55.452 91.0469 55.452C90.5309 55.452 89.9848 55.332 89.4089 55.092C88.8329 54.852 88.3769 54.576 88.0409 54.264L87.0508 55.866C87.5069 56.286 88.0769 56.616 88.7608 56.856ZM96.547 46.974C96.823 47.238 97.147 47.37 97.519 47.37C97.903 47.37 98.227 47.238 98.491 46.974C98.755 46.698 98.887 46.374 98.887 46.002C98.887 45.63 98.755 45.312 98.491 45.048C98.227 44.784 97.903 44.652 97.519 44.652C97.147 44.652 96.823 44.784 96.547 45.048C96.283 45.312 96.151 45.63 96.151 46.002C96.151 46.374 96.283 46.698 96.547 46.974ZM96.385 57H98.671V48.306H96.385V57ZM106.806 57H109.092V50.862C109.092 49.998 108.852 49.32 108.372 48.828C107.904 48.336 107.202 48.09 106.266 48.09C104.994 48.09 103.98 48.54 103.224 49.44V48.306H100.938V57H103.224V51.15C103.716 50.466 104.376 50.124 105.204 50.124C106.272 50.124 106.806 50.664 106.806 51.744V57ZM111.524 46.974C111.8 47.238 112.124 47.37 112.496 47.37C112.88 47.37 113.204 47.238 113.468 46.974C113.732 46.698 113.864 46.374 113.864 46.002C113.864 45.63 113.732 45.312 113.468 45.048C113.204 44.784 112.88 44.652 112.496 44.652C112.124 44.652 111.8 44.784 111.524 45.048C111.26 45.312 111.128 45.63 111.128 46.002C111.128 46.374 111.26 46.698 111.524 46.974ZM111.362 57H113.648V48.306H111.362V57ZM126.154 57H129.016L125.47 52.248L128.908 48.306H126.1L122.806 52.176V44.994H120.52V57H122.806V54.768L123.85 53.652L126.154 57ZM134.079 57.216C135.471 57.216 136.587 56.778 137.427 55.902C138.267 55.014 138.687 53.928 138.687 52.644C138.687 51.36 138.267 50.28 137.427 49.404C136.587 48.528 135.471 48.09 134.079 48.09C132.687 48.09 131.571 48.528 130.731 49.404C129.903 50.28 129.489 51.36 129.489 52.644C129.489 53.928 129.903 55.014 130.731 55.902C131.571 56.778 132.687 57.216 134.079 57.216ZM134.079 55.182C133.395 55.182 132.855 54.942 132.459 54.462C132.063 53.97 131.865 53.364 131.865 52.644C131.865 51.936 132.063 51.342 132.459 50.862C132.855 50.37 133.395 50.124 134.079 50.124C134.763 50.124 135.303 50.37 135.699 50.862C136.107 51.342 136.311 51.936 136.311 52.644C136.311 53.364 136.107 53.97 135.699 54.462C135.303 54.942 134.763 55.182 134.079 55.182ZM142.439 48.522C142.775 47.934 142.943 47.31 142.943 46.65C142.943 46.086 142.781 45.642 142.457 45.318C142.145 44.982 141.767 44.814 141.323 44.814C140.939 44.814 140.609 44.958 140.333 45.246C140.057 45.522 139.919 45.858 139.919 46.254C139.919 46.626 140.033 46.938 140.261 47.19C140.501 47.43 140.795 47.55 141.143 47.55C141.299 47.55 141.413 47.526 141.485 47.478C141.413 47.79 141.239 48.114 140.963 48.45C140.687 48.786 140.399 49.032 140.099 49.188L141.089 49.998C141.653 49.59 142.103 49.098 142.439 48.522ZM144.795 57H147.081V51.258C147.261 50.982 147.567 50.748 147.999 50.556C148.431 50.364 148.839 50.268 149.223 50.268C149.487 50.268 149.697 50.286 149.853 50.322V48.09C149.337 48.09 148.827 48.222 148.323 48.486C147.819 48.75 147.405 49.086 147.081 49.494V48.306H144.795V57ZM151.443 46.974C151.719 47.238 152.043 47.37 152.415 47.37C152.799 47.37 153.123 47.238 153.387 46.974C153.651 46.698 153.783 46.374 153.783 46.002C153.783 45.63 153.651 45.312 153.387 45.048C153.123 44.784 152.799 44.652 152.415 44.652C152.043 44.652 151.719 44.784 151.443 45.048C151.179 45.312 151.047 45.63 151.047 46.002C151.047 46.374 151.179 46.698 151.443 46.974ZM151.281 57H153.567V48.306H151.281V57ZM156.788 56.856C157.484 57.096 158.21 57.216 158.966 57.216C160.142 57.216 161.06 56.958 161.72 56.442C162.392 55.914 162.728 55.242 162.728 54.426C162.728 53.874 162.602 53.406 162.35 53.022C162.098 52.638 161.78 52.362 161.396 52.194C161.012 52.014 160.598 51.864 160.154 51.744C159.71 51.612 159.296 51.516 158.912 51.456C158.528 51.396 158.21 51.306 157.958 51.186C157.706 51.054 157.58 50.892 157.58 50.7C157.58 50.448 157.706 50.244 157.958 50.088C158.21 49.92 158.54 49.836 158.948 49.836C159.464 49.836 159.95 49.932 160.406 50.124C160.874 50.316 161.246 50.556 161.522 50.844L162.44 49.278C161.444 48.486 160.274 48.09 158.93 48.09C157.826 48.09 156.956 48.354 156.32 48.882C155.684 49.41 155.366 50.058 155.366 50.826C155.366 51.366 155.492 51.822 155.744 52.194C156.008 52.554 156.326 52.818 156.698 52.986C157.082 53.154 157.496 53.298 157.94 53.418C158.396 53.538 158.81 53.628 159.182 53.688C159.566 53.748 159.884 53.85 160.136 53.994C160.4 54.126 160.532 54.3 160.532 54.516C160.532 54.804 160.406 55.032 160.154 55.2C159.914 55.368 159.554 55.452 159.074 55.452C158.558 55.452 158.012 55.332 157.436 55.092C156.86 54.852 156.404 54.576 156.068 54.264L155.078 55.866C155.534 56.286 156.104 56.616 156.788 56.856ZM170.298 57H172.584V50.826C172.584 49.962 172.344 49.29 171.864 48.81C171.396 48.33 170.694 48.09 169.758 48.09C169.098 48.09 168.498 48.222 167.958 48.486C167.43 48.75 167.01 49.068 166.698 49.44V44.994H164.412V57H166.698V51.15C167.214 50.466 167.874 50.124 168.678 50.124C169.206 50.124 169.608 50.244 169.884 50.484C170.16 50.724 170.298 51.132 170.298 51.708V57Z" fill="#fff"/>
</svg>
