<svg width="138" height="70" viewBox="0 0 138 70" fill="none" xmlns="http://www.w3.org/2000/svg">
<path fill-rule="evenodd" clip-rule="evenodd" d="M35 0C15.67 0 0 15.67 0 35C0 54.33 15.67 70 35 70C48.0324 70 59.4011 62.8771 65.4256 52.312H66.1944V50.8881C66.5475 50.1962 66.8782 49.4911 67.1857 48.7736C67.6835 49.0685 68.2471 49.216 68.8764 49.216C70.0164 49.216 70.9404 48.808 71.6484 47.992C72.3684 47.176 72.7284 46.06 72.7284 44.644C72.7284 43.228 72.3684 42.118 71.6484 41.314C71.102 40.6842 70.4269 40.2975 69.6232 40.1538C69.8714 38.4718 70 36.7509 70 35C70 15.67 54.33 0 35 0ZM69.2191 42.3865C69.3772 41.6506 69.5122 40.9061 69.6232 40.1538C69.3855 40.1113 69.1366 40.09 68.8764 40.09C67.7724 40.09 66.8784 40.528 66.1944 41.404V40.306H63.9084V52.312H65.4256C65.6925 51.844 65.9488 51.3692 66.1944 50.8881V47.884C66.4893 48.2602 66.8197 48.5567 67.1857 48.7736C67.4138 48.2412 67.6291 47.702 67.8312 47.1564C67.9407 47.1735 68.0491 47.182 68.1564 47.182C68.8164 47.182 69.3444 46.948 69.7404 46.48C70.1484 46.012 70.3524 45.4 70.3524 44.644C70.3524 43.9 70.1484 43.294 69.7404 42.826C69.5866 42.6442 69.4128 42.4977 69.2191 42.3865ZM69.2191 42.3865C68.8678 44.0218 68.4023 45.6147 67.8312 47.1564C67.5735 47.1162 67.3099 47.0288 67.0404 46.894C66.6684 46.702 66.3864 46.468 66.1944 46.192V43.114C66.3864 42.838 66.6684 42.604 67.0404 42.412C67.4124 42.22 67.7844 42.124 68.1564 42.124C68.56 42.124 68.9143 42.2115 69.2191 42.3865ZM48.6865 49H51.2605V36.994H40.4605V49H43.0165V39.244H48.6865V49ZM57.6045 49.216C58.9965 49.216 60.1125 48.778 60.9525 47.902C61.7925 47.014 62.2125 45.928 62.2125 44.644C62.2125 43.36 61.7925 42.28 60.9525 41.404C60.1125 40.528 58.9965 40.09 57.6045 40.09C56.2125 40.09 55.0965 40.528 54.2565 41.404C53.4285 42.28 53.0145 43.36 53.0145 44.644C53.0145 45.928 53.4285 47.014 54.2565 47.902C55.0965 48.778 56.2125 49.216 57.6045 49.216ZM57.6045 47.182C56.9205 47.182 56.3805 46.942 55.9845 46.462C55.5885 45.97 55.3905 45.364 55.3905 44.644C55.3905 43.936 55.5885 43.342 55.9845 42.862C56.3805 42.37 56.9205 42.124 57.6045 42.124C58.2885 42.124 58.8285 42.37 59.2245 42.862C59.6325 43.342 59.8365 43.936 59.8365 44.644C59.8365 45.364 59.6325 45.97 59.2245 46.462C58.8285 46.942 58.2885 47.182 57.6045 47.182ZM76.0046 49H78.3086V42.304H80.7386V40.306H73.5746V42.304H76.0046V49ZM87.4641 41.422C86.8401 40.534 86.0661 40.09 85.1421 40.09C84.1581 40.09 83.3541 40.498 82.7301 41.314C82.1181 42.13 81.8121 43.246 81.8121 44.662C81.8121 46.078 82.1181 47.194 82.7301 48.01C83.3541 48.814 84.1581 49.216 85.1421 49.216C86.1021 49.216 86.8761 48.772 87.4641 47.884V52.312H89.7501V47.884C90.3501 48.772 91.1241 49.216 92.0721 49.216C93.0561 49.216 93.8541 48.808 94.4661 47.992C95.0901 47.176 95.4021 46.06 95.4021 44.644C95.4021 43.228 95.0901 42.118 94.4661 41.314C93.8541 40.498 93.0561 40.09 92.0721 40.09C91.1241 40.09 90.3501 40.528 89.7501 41.404V36.994H87.4641V41.422ZM84.6021 42.826C84.9381 42.358 85.3641 42.124 85.8801 42.124C86.1681 42.124 86.4621 42.22 86.7621 42.412C87.0741 42.604 87.3081 42.838 87.4641 43.114V46.192C87.2961 46.468 87.0621 46.702 86.7621 46.894C86.4741 47.086 86.1801 47.182 85.8801 47.182C85.3641 47.182 84.9381 46.948 84.6021 46.48C84.2781 46.012 84.1161 45.406 84.1161 44.662C84.1161 43.906 84.2781 43.294 84.6021 42.826ZM92.5941 46.48C92.2701 46.948 91.8441 47.182 91.3161 47.182C91.0281 47.182 90.7341 47.086 90.4341 46.894C90.1341 46.702 89.9061 46.468 89.7501 46.192V43.114C89.9061 42.838 90.1341 42.604 90.4341 42.412C90.7341 42.22 91.0281 42.124 91.3161 42.124C91.8441 42.124 92.2701 42.358 92.5941 42.826C92.9181 43.294 93.0801 43.9 93.0801 44.644C93.0801 45.4 92.9181 46.012 92.5941 46.48ZM101.339 49.216C102.731 49.216 103.847 48.778 104.687 47.902C105.527 47.014 105.947 45.928 105.947 44.644C105.947 43.36 105.527 42.28 104.687 41.404C103.847 40.528 102.731 40.09 101.339 40.09C99.9469 40.09 98.8308 40.528 97.9909 41.404C97.1628 42.28 96.7488 43.36 96.7488 44.644C96.7488 45.928 97.1628 47.014 97.9909 47.902C98.8308 48.778 99.9469 49.216 101.339 49.216ZM101.339 47.182C100.655 47.182 100.115 46.942 99.7188 46.462C99.3229 45.97 99.1249 45.364 99.1249 44.644C99.1249 43.936 99.3229 43.342 99.7188 42.862C100.115 42.37 100.655 42.124 101.339 42.124C102.023 42.124 102.563 42.37 102.959 42.862C103.367 43.342 103.571 43.936 103.571 44.644C103.571 45.364 103.367 45.97 102.959 46.462C102.563 46.942 102.023 47.182 101.339 47.182ZM106.833 47.344V49.216C107.925 49.216 108.759 48.862 109.335 48.154C109.923 47.434 110.307 46.312 110.487 44.788L110.775 42.304H113.529V49H115.815V40.306H108.777L108.219 44.518C108.087 45.55 107.913 46.282 107.697 46.714C107.481 47.134 107.193 47.344 106.833 47.344ZM118.084 49H120.28L123.97 43.546V49H126.256V40.306H123.952L120.37 45.562V40.306H118.084V49ZM132.558 49.216C133.95 49.216 135.066 48.778 135.906 47.902C136.746 47.014 137.166 45.928 137.166 44.644C137.166 43.36 136.746 42.28 135.906 41.404C135.066 40.528 133.95 40.09 132.558 40.09C131.166 40.09 130.05 40.528 129.21 41.404C128.382 42.28 127.968 43.36 127.968 44.644C127.968 45.928 128.382 47.014 129.21 47.902C130.05 48.778 131.166 49.216 132.558 49.216ZM132.558 47.182C131.874 47.182 131.334 46.942 130.938 46.462C130.542 45.97 130.344 45.364 130.344 44.644C130.344 43.936 130.542 43.342 130.938 42.862C131.334 42.37 131.874 42.124 132.558 42.124C133.242 42.124 133.782 42.37 134.178 42.862C134.586 43.342 134.79 43.936 134.79 44.644C134.79 45.364 134.586 45.97 134.178 46.462C133.782 46.942 133.242 47.182 132.558 47.182Z" fill="#ffffff"/>
</svg>
