<svg width="1230" height="889" viewBox="0 0 1230 889" fill="none" xmlns="http://www.w3.org/2000/svg">
<path d="M233.533 550.264C254.081 305.363 460.277 149.885 615.189 153.013C793.708 156.647 860.991 370.064 996.845 305.152C1120.82 245.986 1128.12 37.894 1219.27 5.09961C1303.03 -25.0324 1435.57 100.778 1654 723.534" stroke="white" stroke-opacity="0.3" stroke-miterlimit="10"/>
<path d="M1643.59 751.128C1427.81 137.374 1295.19 6.70355 1210.24 31.2571C1147.28 49.5983 1123.02 150.644 1073.76 229.629C1049.17 270.288 1018.93 300.101 985.749 316.391C877.065 369.893 812.285 251.478 696.145 200.681C666.542 187.583 636.121 180.349 605.508 179.128C449.964 172.07 246.069 306.84 222.335 542.824" stroke="white" stroke-opacity="0.3" stroke-miterlimit="10"/>
<path d="M1633.15 778.643C1420.03 173.933 1287.41 38.4449 1201.45 57.4623C1138.26 71.4506 1112.56 167.679 1063.19 242.649C1038.02 281.845 1007.82 310.913 974.907 327.636C867.79 382.025 803.035 275.359 686.491 226.928C656.873 214.516 626.567 207.265 596.056 205.291C439.855 195.106 238.285 308.323 211.367 535.39" stroke="white" stroke-opacity="0.3" stroke-miterlimit="10"/>
<path d="M1622.74 806.07C1412.32 210.53 1279.62 70.2668 1192.55 83.6212C1129.09 93.3412 1102.04 184.667 1052.5 255.665C1026.79 293.376 996.662 321.715 964.038 338.877C858.387 394.154 793.885 299.194 676.81 253.172C647.165 241.334 616.938 234.021 586.501 231.323C429.669 217.546 230.424 309.674 200.321 527.825" stroke="white" stroke-opacity="0.3" stroke-miterlimit="10"/>
<path d="M1612.32 833.708C1404.56 247.085 1271.89 102.13 1183.63 109.822C1119.96 115.316 1091.45 201.739 1041.76 268.638C1015.49 304.883 985.38 332.525 952.992 350.117C848.807 406.282 784.482 323.07 666.825 279.415C637.213 268.268 607.13 260.949 576.846 257.523C419.356 240.154 222.436 311.237 189.123 520.47" stroke="white" stroke-opacity="0.3" stroke-miterlimit="10"/>
<path d="M1602.01 861.262C1396.82 283.641 1264.08 129.896 1174.71 135.981C1110.91 140.208 1080.86 218.517 1031.07 281.655C1004.26 316.369 974.163 343.311 942.022 361.358C839.304 418.411 775.206 346.948 657.145 305.701C627.542 295.133 597.562 287.765 567.393 283.641C409.245 262.51 214.651 312.674 178.154 513.033" stroke="white" stroke-opacity="0.3" stroke-miterlimit="10"/>
<path d="M1591.47 888.817C1389.07 320.24 1256.43 166.157 1165.81 161.931C1101.82 159.48 1070.22 235.549 1020.35 294.714C993.04 327.885 962.951 354.143 931.057 372.643C829.805 430.583 765.858 370.826 647.368 331.988C617.772 322.051 587.892 314.66 557.843 309.844C399.039 285.121 206.77 314.07 167.088 505.638" stroke="white" stroke-opacity="0.3" stroke-miterlimit="10"/>
<path d="M1581.06 916.369C1381.38 356.793 1248.71 197.935 1156.89 188.342C1092.74 181.495 1059.53 252.198 1009.63 307.686C981.831 339.283 951.74 364.844 920.083 383.756C820.322 442.625 756.527 394.659 637.582 358.103C609.906 349.651 580.359 341.537 548.285 335.832C388.798 307.39 198.88 315.589 156.013 498.156" stroke="white" stroke-opacity="0.3" stroke-miterlimit="10"/>
<path d="M1570.65 943.923C1373.57 393.391 1241.01 230.18 1147.99 214.417C1083.67 203.556 1048.81 268.891 998.869 320.618C970.578 350.623 940.468 375.54 909.041 394.955C810.746 454.712 747.153 418.41 627.728 384.348C599.925 376.403 570.454 368.373 538.632 361.949C378.691 329.831 190.997 317.068 144.945 490.676" stroke="white" stroke-opacity="0.3" stroke-miterlimit="10"/>
<path d="M1560.2 971.436C1365.81 429.948 1233.29 262.341 1139.07 240.704C1074.59 225.87 1037.97 285.669 988.226 333.678C959.483 362.073 929.357 386.36 898.17 406.282C801.315 466.926 737.9 442.373 618.019 410.508C590.217 403.07 560.72 395.04 529.152 387.941C368.376 351.934 183.108 318.295 133.872 483.027" stroke="white" stroke-opacity="0.3" stroke-miterlimit="10"/>
<path d="M1549.79 998.991C1358.08 466.504 1225.58 294.587 1130.22 266.864C1065.59 248.1 1027.3 302.279 977.559 346.737C948.369 373.461 918.207 397.103 887.25 417.524C791.887 479.056 728.648 466.209 608.288 436.964C580.359 430.118 550.938 422.046 519.647 414.312C358.214 374.418 175.297 319.986 122.826 475.802" stroke="white" stroke-opacity="0.3" stroke-miterlimit="10"/>
<path d="M1539.38 1026.55C1350.32 503.104 1217.82 326.834 1121.25 293.025C1056.44 270.373 1016.46 318.846 966.816 359.755C938.281 383.252 909.062 406.96 876.23 428.767C782.332 491.144 719.271 490.087 598.455 463.209C570.45 456.913 541.08 448.799 509.992 440.431C347.901 396.649 167.31 321.424 111.679 468.365" stroke="white" stroke-opacity="0.3" stroke-miterlimit="10"/>
<path d="M1528.96 1054.1C1342.56 539.826 1210.24 359.161 1112.35 319.224C1047.37 292.642 1005.61 335.326 956.099 372.769C926.881 394.871 897.587 417.903 865.26 440.006C772.828 503.397 709.969 513.92 588.673 489.451C560.592 483.746 531.247 475.589 500.488 466.546C337.766 418.791 159.474 322.859 100.659 460.925" stroke="white" stroke-opacity="0.3" stroke-miterlimit="10"/>
<path d="M1518.6 1081.65C1334.83 576.255 1202.38 391.533 1103.46 345.426C1038.3 315.04 994.774 351.765 945.386 385.827C915.46 406.451 886.115 428.849 854.395 451.289C763.404 515.441 700.772 537.84 578.895 515.779C550.713 510.581 521.444 502.383 490.937 492.747C327.558 440.936 151.591 324.296 89.5912 453.487" stroke="white" stroke-opacity="0.3" stroke-miterlimit="10"/>
<path d="M1508.11 1109.16C1327.06 612.81 1194.69 423.989 1094.53 371.585C1029.17 337.354 983.898 368.078 934.687 398.801C904.054 417.903 874.608 439.752 843.317 462.488C753.843 527.528 691.337 561.632 569.106 541.981C539.636 536.728 510.346 528.956 481.351 518.695C317.365 463.038 143.623 325.817 78.5139 446.007" stroke="white" stroke-opacity="0.3" stroke-miterlimit="10"/>
<path d="M1497.7 1136.72C1319.3 649.408 1186.81 456.319 1085.71 397.745C1020.15 359.71 973.109 384.348 923.949 411.818C892.608 429.356 863.111 450.656 832.351 473.73C744.318 539.657 682.014 585.51 559.379 568.225C529.934 563.612 500.697 555.834 471.851 544.94C307.182 484.887 135.816 327.254 67.4215 438.4" stroke="white" stroke-opacity="0.3" stroke-miterlimit="10"/>
<path d="M1487.29 1164.27C1311.57 685.964 1178.93 488.944 1076.72 423.905C1011 382.151 962.168 400.534 913.261 424.792C881.212 440.724 851.665 461.601 821.41 484.972C734.868 551.786 672.716 609.345 549.55 594.469C520.132 590.441 490.945 582.613 462.249 571.057C297.025 507.032 127.934 328.733 56.354 431.131" stroke="white" stroke-opacity="0.3" stroke-miterlimit="10"/>
<path d="M1476.85 1191.82C1303.81 722.73 1171.24 521.441 1067.82 450.105C1001.82 404.548 951.297 416.635 902.566 437.807C869.708 452.049 840.187 472.503 810.438 496.212C725.362 563.829 663.412 633.221 539.765 620.754C510.378 617.284 481.236 609.406 452.692 597.215C286.861 529.006 120.045 330.169 45.2806 423.692" stroke="white" stroke-opacity="0.3" stroke-miterlimit="10"/>
<path d="M1466.44 1219.38C1296.18 759.117 1163.41 554.025 1058.9 476.434C992.676 427.158 940.457 432.863 891.853 451.078C858.363 463.756 828.665 483.703 799.472 507.707C715.861 576.296 654.089 657.353 529.987 647.168C500.631 644.257 471.531 636.327 443.142 623.502C276.704 551.067 112.036 331.902 34.2135 416.424" stroke="white" stroke-opacity="0.3" stroke-miterlimit="10"/>
<path d="M1456.02 1246.93C1288.32 795.716 1155.55 586.609 1050 502.468C983.5 449.431 929.614 448.67 881.136 463.841C846.938 474.576 817.215 494.396 788.502 518.781C706.383 588.257 644.787 681.02 520.205 673.328C490.881 670.998 461.816 663.014 433.587 649.536C266.568 572.748 104.276 333.086 23.1423 408.818" stroke="white" stroke-opacity="0.3" stroke-miterlimit="10"/>
<path d="M1445.58 1274.45C1280.56 832.271 1147.69 619.403 1041.18 528.626C974.424 471.912 918.894 464.601 870.543 476.857C835.637 485.689 805.838 505.299 777.656 529.894C696.977 600.301 635.559 704.812 510.522 699.487C481.225 697.693 452.185 689.655 424.106 675.567C256.632 594.089 96.4881 334.565 12.1193 401.337" stroke="white" stroke-opacity="0.3" stroke-miterlimit="10"/>
<path d="M1435.19 1302C1171.72 598.991 985.496 465.362 859.726 489.874C722.431 516.625 670.035 729.661 500.641 725.773C301.927 721.167 103.339 326.197 0.999814 393.899" stroke="white" stroke-opacity="0.3" stroke-miterlimit="10"/>
</svg>
