<svg width="1600" height="900" viewBox="0 0 1600 900" fill="none" xmlns="http://www.w3.org/2000/svg">
<g clip-path="url(#clip0_0_48)">
<path d="M68 0V900" stroke="#444444" stroke-opacity="0.2"/>
<path d="M168 0V900" stroke="#444444" stroke-opacity="0.2"/>
<path d="M268 0V900" stroke="#444444" stroke-opacity="0.2"/>
<path d="M368 0V900" stroke="#444444" stroke-opacity="0.2"/>
<path d="M468 0V900" stroke="#444444" stroke-opacity="0.2"/>
<path d="M568 0V900" stroke="#444444" stroke-opacity="0.2"/>
<path d="M668 0V900" stroke="#444444" stroke-opacity="0.2"/>
<path d="M768 0V900" stroke="#444444" stroke-opacity="0.2"/>
<path d="M868 0V900" stroke="#444444" stroke-opacity="0.2"/>
<path d="M968 0V900" stroke="#444444" stroke-opacity="0.2"/>
<path d="M1068 0V900" stroke="#444444" stroke-opacity="0.2"/>
<path d="M1168 0V900" stroke="#444444" stroke-opacity="0.2"/>
<path d="M1268 0V900" stroke="#444444" stroke-opacity="0.2"/>
<path d="M1368 0V900" stroke="#444444" stroke-opacity="0.2"/>
<path d="M1468 0V900" stroke="#444444" stroke-opacity="0.2"/>
<path d="M1568 0V900" stroke="#444444" stroke-opacity="0.2"/>
<path d="M-26 100.773L1574 100.773" stroke="#444444" stroke-opacity="0.2"/>
<path d="M-26 0.772569L1574 0.772461" stroke="#444444" stroke-opacity="0.2"/>
<path d="M-26 200.773H1574" stroke="#444444" stroke-opacity="0.2"/>
<path d="M-26 300.773H1574" stroke="#444444" stroke-opacity="0.2"/>
<path d="M-26 400.773H1574" stroke="#444444" stroke-opacity="0.2"/>
<path d="M-26 500.773H1574" stroke="#444444" stroke-opacity="0.2"/>
<path d="M-26 600.773H1574" stroke="#444444" stroke-opacity="0.2"/>
<path d="M-26 700.773H1574" stroke="#444444" stroke-opacity="0.2"/>
<path d="M-26 800.773H1574" stroke="#444444" stroke-opacity="0.2"/>
</g>
<defs>
<clipPath id="clip0_0_48">
<rect width="1600" height="900" fill="white"/>
</clipPath>
</defs>
</svg>
